<svg width="20" height="20" viewBox="0 0 20 20" fill="none" xmlns="http://www.w3.org/2000/svg">
<path d="M9.99984 19.0084C9.42484 19.0084 8.88317 18.7167 8.49984 18.2084L7.24984 16.5417C7.22484 16.5084 7.12484 16.4667 7.08317 16.4584H6.6665C3.1915 16.4584 1.0415 15.5167 1.0415 10.8334V6.66675C1.0415 2.98341 2.98317 1.04175 6.6665 1.04175H13.3332C17.0165 1.04175 18.9582 2.98341 18.9582 6.66675V10.8334C18.9582 14.5167 17.0165 16.4584 13.3332 16.4584H12.9165C12.8498 16.4584 12.7915 16.4917 12.7498 16.5417L11.4998 18.2084C11.1165 18.7167 10.5748 19.0084 9.99984 19.0084ZM6.6665 2.29175C3.68317 2.29175 2.2915 3.68341 2.2915 6.66675V10.8334C2.2915 14.6001 3.58317 15.2084 6.6665 15.2084H7.08317C7.50817 15.2084 7.9915 15.4501 8.24984 15.7917L9.49984 17.4584C9.7915 17.8417 10.2082 17.8417 10.4998 17.4584L11.7498 15.7917C12.0248 15.4251 12.4582 15.2084 12.9165 15.2084H13.3332C16.3165 15.2084 17.7082 13.8167 17.7082 10.8334V6.66675C17.7082 3.68341 16.3165 2.29175 13.3332 2.29175H6.6665Z" fill="#0C0507"/>
<path d="M9.99984 9.99992C9.53317 9.99992 9.1665 9.62492 9.1665 9.16659C9.1665 8.70825 9.5415 8.33325 9.99984 8.33325C10.4582 8.33325 10.8332 8.70825 10.8332 9.16659C10.8332 9.62492 10.4665 9.99992 9.99984 9.99992Z" fill="#0C0507"/>
<path d="M13.3333 9.99992C12.8667 9.99992 12.5 9.62492 12.5 9.16659C12.5 8.70825 12.875 8.33325 13.3333 8.33325C13.7917 8.33325 14.1667 8.70825 14.1667 9.16659C14.1667 9.62492 13.8 9.99992 13.3333 9.99992Z" fill="#0C0507"/>
<path d="M6.66683 9.99992C6.20016 9.99992 5.8335 9.62492 5.8335 9.16659C5.8335 8.70825 6.2085 8.33325 6.66683 8.33325C7.12516 8.33325 7.50016 8.70825 7.50016 9.16659C7.50016 9.62492 7.1335 9.99992 6.66683 9.99992Z" fill="#0C0507"/>
</svg>
