<svg width="20" height="20" viewBox="0 0 20 20" fill="none" xmlns="http://www.w3.org/2000/svg">
<path d="M14.6834 8.0166H10.3083C9.96668 8.0166 9.68335 7.73327 9.68335 7.3916C9.68335 7.04993 9.96668 6.7666 10.3083 6.7666H14.6834C15.025 6.7666 15.3084 7.04993 15.3084 7.3916C15.3084 7.73327 15.0334 8.0166 14.6834 8.0166Z" fill="#0C0507"/>
<path d="M5.93322 8.65002C5.77489 8.65002 5.61655 8.59168 5.49155 8.46668L4.86655 7.84168C4.62489 7.60002 4.62489 7.20002 4.86655 6.95835C5.10822 6.71668 5.50822 6.71668 5.74989 6.95835L5.93322 7.14168L7.36655 5.70835C7.60822 5.46668 8.00822 5.46668 8.24989 5.70835C8.49155 5.95002 8.49155 6.35002 8.24989 6.59168L6.37489 8.46668C6.25822 8.58335 6.09989 8.65002 5.93322 8.65002Z" fill="#0C0507"/>
<path d="M14.6834 13.8501H10.3083C9.96668 13.8501 9.68335 13.5668 9.68335 13.2251C9.68335 12.8834 9.96668 12.6001 10.3083 12.6001H14.6834C15.025 12.6001 15.3084 12.8834 15.3084 13.2251C15.3084 13.5668 15.0334 13.8501 14.6834 13.8501Z" fill="#0C0507"/>
<path d="M5.93322 14.4833C5.77489 14.4833 5.61655 14.4249 5.49155 14.2999L4.86655 13.6749C4.62489 13.4333 4.62489 13.0333 4.86655 12.7916C5.10822 12.5499 5.50822 12.5499 5.74989 12.7916L5.93322 12.9749L7.36655 11.5416C7.60822 11.2999 8.00822 11.2999 8.24989 11.5416C8.49155 11.7833 8.49155 12.1833 8.24989 12.4249L6.37489 14.2999C6.25822 14.4166 6.09989 14.4833 5.93322 14.4833Z" fill="#0C0507"/>
<path d="M12.5001 18.9584H7.50008C2.97508 18.9584 1.04175 17.0251 1.04175 12.5001V7.50008C1.04175 2.97508 2.97508 1.04175 7.50008 1.04175H12.5001C17.0251 1.04175 18.9584 2.97508 18.9584 7.50008V12.5001C18.9584 17.0251 17.0251 18.9584 12.5001 18.9584ZM7.50008 2.29175C3.65841 2.29175 2.29175 3.65841 2.29175 7.50008V12.5001C2.29175 16.3417 3.65841 17.7084 7.50008 17.7084H12.5001C16.3417 17.7084 17.7084 16.3417 17.7084 12.5001V7.50008C17.7084 3.65841 16.3417 2.29175 12.5001 2.29175H7.50008Z" fill="#0C0507"/>
</svg>
