<svg width="20" height="20" viewBox="0 0 20 20" fill="none" xmlns="http://www.w3.org/2000/svg">
<path d="M7.15028 18.7916C6.96694 18.7916 6.77528 18.7583 6.60028 18.6833C6.20861 18.5166 5.90861 18.1916 5.77528 17.7833L5.40861 16.6833C5.24194 16.1833 5.39194 15.5583 5.75861 15.1833L7.65028 13.2833C7.67528 13.2583 7.70861 13.1666 7.70861 13.1249V11.0666L3.90861 12.7083C3.40028 12.9249 2.88361 12.8999 2.49194 12.6416C2.10028 12.3833 1.86694 11.9166 1.86694 11.3749V10.2999C1.86694 9.48327 2.45028 8.60827 3.19194 8.3166L7.70028 6.3666V3.99994C7.70028 2.9916 8.40861 1.83327 9.30861 1.3666C9.74194 1.14993 10.2419 1.14993 10.6669 1.3666C11.5753 1.83327 12.2836 2.98327 12.2836 3.9916V6.35827L16.8169 8.30827C17.5586 8.62494 18.1253 9.47493 18.1253 10.2999V11.3749C18.1253 11.9249 17.9003 12.3833 17.5003 12.6416C17.1003 12.8999 16.5919 12.9249 16.0836 12.7166L12.2836 11.0749V13.1333C12.2836 13.1666 12.3169 13.2499 12.3419 13.2749L14.2419 15.1833C14.6086 15.5499 14.7586 16.1916 14.5919 16.6833L14.2253 17.7833C14.0836 18.1916 13.7836 18.5166 13.3836 18.6749C12.9919 18.8333 12.5586 18.8166 12.1836 18.6333C12.1419 18.6083 12.1003 18.5833 12.0586 18.5499L10.1169 16.9166C10.0503 16.8583 9.91694 16.8666 9.85861 16.9166L7.91694 18.5499C7.88361 18.5833 7.84194 18.6083 7.80028 18.6249C7.60028 18.7416 7.37528 18.7916 7.15028 18.7916ZM7.96694 9.69994C8.15861 9.69994 8.34194 9.74993 8.50028 9.85827C8.79194 10.0499 8.95861 10.3749 8.95861 10.7583V13.1333C8.95861 13.4916 8.78361 13.9166 8.53361 14.1666L6.64194 16.0666C6.60861 16.1083 6.57528 16.2333 6.59194 16.2833L6.95861 17.3916C6.98361 17.4749 7.04194 17.5083 7.07528 17.5249C7.10028 17.5333 7.14194 17.5499 7.19194 17.5333L9.05861 15.9583C9.58361 15.5083 10.4086 15.5083 10.9336 15.9583L12.7919 17.5249C12.8503 17.5333 12.8919 17.5249 12.9169 17.5166C12.9503 17.4999 13.0169 17.4666 13.0419 17.3833L13.4086 16.2833C13.4253 16.2249 13.3919 16.0999 13.3586 16.0666L11.4669 14.1666C11.2169 13.9333 11.0336 13.4999 11.0336 13.1333V10.7583C11.0336 10.3833 11.1919 10.0583 11.4753 9.8666C11.7586 9.67494 12.1253 9.64994 12.4753 9.79994L16.5753 11.5666C16.7003 11.6166 16.7836 11.6166 16.8086 11.5999C16.8336 11.5833 16.8669 11.5083 16.8669 11.3749V10.2999C16.8669 9.98327 16.6003 9.57494 16.3169 9.45827L11.6669 7.44993C11.3003 7.2916 11.0419 6.8916 11.0419 6.4916V3.9916C11.0419 3.4416 10.6086 2.73327 10.1086 2.48327C10.0419 2.44993 9.95861 2.44993 9.88361 2.48327C9.40028 2.73327 8.95861 3.45827 8.95861 3.99994V6.49993C8.95861 6.8916 8.70028 7.29993 8.33361 7.45827L3.68361 9.4666C3.39194 9.58327 3.12528 9.9916 3.12528 10.2999V11.3749C3.12528 11.5083 3.15861 11.5833 3.18361 11.5999C3.20861 11.6166 3.29194 11.6166 3.41694 11.5666L7.50861 9.79994C7.65861 9.73327 7.81694 9.69994 7.96694 9.69994Z" fill="#0C0507"/>
</svg>
