<svg width="30" height="30" viewBox="0 0 30 30" fill="none" xmlns="http://www.w3.org/2000/svg">
<path d="M17.1624 4.38779L19.3624 8.78779C19.6624 9.40029 20.4624 9.98779 21.1374 10.1003L25.1249 10.7628C27.6749 11.1878 28.2749 13.0378 26.4374 14.8628L23.3374 17.9628C22.8124 18.4878 22.5249 19.5003 22.6874 20.2253L23.5749 24.0628C24.2749 27.1003 22.6624 28.2753 19.9749 26.6878L16.2374 24.4753C15.5624 24.0753 14.4499 24.0753 13.7624 24.4753L10.0249 26.6878C7.34989 28.2753 5.72489 27.0878 6.42489 24.0628L7.31239 20.2253C7.47489 19.5003 7.18739 18.4878 6.66239 17.9628L3.56239 14.8628C1.73739 13.0378 2.32489 11.1878 4.87489 10.7628L8.86239 10.1003C9.52489 9.98779 10.3249 9.40029 10.6249 8.78779L12.8249 4.38779C14.0249 2.00029 15.9749 2.00029 17.1624 4.38779Z" fill="#0C0507"/>
</svg>
